<?xml version="1.0" encoding="UTF-8"?><svg id="a" xmlns="http://www.w3.org/2000/svg" viewBox="0 0 1000 500"><defs><style>.b,.c{fill:#fff;}.d{fill:#2f230d;}.d,.e,.f,.c,.g,.h{stroke:#000;stroke-miterlimit:10;}.d,.g,.h{stroke-width:5px;}.e{fill:#fefd62;}.e,.f{stroke-width:3px;}.f,.h{fill:none;}.c{stroke-width:4px;}.g{fill:#6e500e;}.i{fill:#fffee9;}.j{fill:#fc0;}</style></defs><path class="g" d="m392.77,41.52c11.98,17,12.94,38.85,4.61,58.25,32.12-6.22,66.65-9.61,102.63-9.61s70.5,3.39,102.63,9.61c-8.33-19.4-7.37-41.25,4.61-58.25,7.96-11.3,19.55-18.67,32.57-21.91-43.3-11.04-90.46-17.1-139.8-17.1s-96.5,6.06-139.8,17.1c13.02,3.24,24.61,10.61,32.57,21.91Z"/><path class="g" d="m759.02,404.83c-9.1-4.92-17.28-13.75-22.35-25.29-.92-2.1-1.7-4.21-2.36-6.32-56.84,36.18-140.74,59.06-234.32,59.06s-177.48-22.88-234.32-59.06c-.65,2.11-1.43,4.23-2.36,6.32-5.07,11.54-13.25,20.37-22.35,25.29,12.91,7.74,21.61,22.29,21.61,38.98,0,.03,0,.05,0,.08,65.19,33.56,147.68,53.61,237.41,53.61s172.22-20.05,237.41-53.61c0-.03,0-.05,0-.08,0-16.69,8.71-31.25,21.61-38.98Z"/><path class="d" d="m923.46,215.48c-9.72,0-18.99,1.29-27.49,3.61.2-4.77-.2-9.57-1.3-14.34-7.52-32.57-44.12-52.44-84.92-47.99,2.05-5.46,2.58-11.46,1.2-17.44-3.79-16.41-20.56-26.62-38.02-23.51.6-3.96.44-8.07-.63-12.14-4.44-16.89-22.62-26.69-40.61-21.9-1.08.29-2.13.62-3.15,1-1.86-19.1-12.52-38.18-30.55-51.06-30.8-22-71.43-17.62-90.74,9.79-11.98,17-12.94,38.85-4.61,58.25-32.12-6.22-66.65-9.61-102.63-9.61s-70.5,3.39-102.63,9.61c8.33-19.4,7.37-41.25-4.61-58.25-19.32-27.41-59.94-31.8-90.74-9.79-18.04,12.88-28.69,31.96-30.55,51.06-1.02-.38-2.07-.71-3.15-1-17.99-4.79-36.17,5.01-40.61,21.9-1.07,4.07-1.23,8.18-.63,12.14-17.45-3.11-34.23,7.1-38.02,23.51-1.38,5.98-.85,11.98,1.2,17.44-40.79-4.45-77.39,15.43-84.92,47.99-1.1,4.77-1.51,9.57-1.3,14.34-8.5-2.32-17.78-3.61-27.49-3.61-40.89,0-74.04,22.62-74.04,50.51s33.15,50.51,74.04,50.51c9.85,0,19.24-1.32,27.84-3.71,7.08,39.03,47.16,64.93,91.14,59.49-.52,15.52,6.04,29.19,18.15,34.59,17.39,7.74,39.62-4.5,49.66-27.35.92-2.1,1.7-4.21,2.36-6.32,56.84,36.18,140.74,59.06,234.32,59.06s177.48-22.88,234.32-59.06c.65,2.11,1.43,4.23,2.36,6.32,10.04,22.85,32.27,35.09,49.66,27.35,12.11-5.39,18.67-19.07,18.15-34.59,43.97,5.44,84.05-20.46,91.14-59.49,8.6,2.38,17.99,3.71,27.84,3.71,40.89,0,74.04-22.62,74.04-50.51s-33.15-50.51-74.04-50.51Zm-423.46,201.69c-162.92,0-295-69.83-295-155.96S337.08,105.25,500,105.25s295,69.83,295,155.96-132.08,155.96-295,155.96Z"/><ellipse class="c" cx="500" cy="261.21" rx="295" ry="155.96"/><path class="j" d="m261.89,139.6c-.79-.32-12.01-5.09-14.8-17.09-.32-1.39-2.83-13.03,4.46-19.69.91-.83,5.11-4.45,10.95-3.85,1.1.11,5.48.64,8.56,4.47.2.25,4.17,5.35,2.13,11.25-.12.34-1.73,4.79-5.92,6.59-3.29,1.41-6.1.43-6.53,1.59-.4,1.08,1.63,3.09,3.59,4.19,4.63,2.6,11.69,1.72,16.43-1.88,5.37-4.08,6.39-10.63,7.92-20.4,1.22-7.79.22-8.76,1.17-18.29.73-7.35,1.47-14.73,4.43-22.27,4.8-12.23,13.32-19.46,15.73-21.45,1.5-1.24,27.18-21.83,53.83-9.5,13.77,6.37,25.6,20.45,26.8,37.28.25,3.59.95,16.19-7.92,26.96-11.68,14.17-29.86,12.96-31.98,12.78-13.62-1.14-31.92-10.27-33.37-25.83-.87-9.27,4.44-18.64,11.87-23.6,5.95-3.97,15.63-6.68,22.38-2.62,1.07.64,4.57,2.76,5.77,6.95.27.94,1,4.01-.41,7.12-1.9,4.21-5.69,3.98-6.44,7.17-.64,2.74,1.44,6.02,3.87,7.48,4.35,2.62,10.33-.26,13.4-3.4,4.54-4.64,4.04-11.21,3.84-13.83-.83-10.9-9.14-17.66-9.79-18.17-11.36-8.95-29.3-5.83-40.31,1.64-14.14,9.59-17.61,26.83-18.57,31.59-1.04,5.17-.32,5.31-2.52,20.34-2.06,14.08-3.35,18.19-5.94,22.32-1.58,2.51-5.08,7.93-12,11.21-2.99,1.42-11.37,4.69-20.62.94Z"/><path class="j" d="m247.39,156.68c-.1-.8-1.71-12.23-12.16-17.89-1.21-.65-11.4-5.96-19.42-1.08-1,.61-5.42,3.49-6.33,8.95-.17,1.03-.78,5.14,2,8.94.18.25,3.92,5.18,9.92,4.87.35-.02,4.89-.32,7.61-3.66,2.13-2.62,1.93-5.43,3.12-5.52,1.11-.08,2.46,2.28,2.99,4.35,1.25,4.88-1.34,11.07-5.87,14.44-5.14,3.81-11.48,3.04-20.95,1.89-7.55-.92-8.2-2.08-17.29-3.7-7.02-1.25-14.06-2.5-21.81-1.77-12.58,1.18-21.44,7.04-23.89,8.71-1.53,1.04-27.12,19.01-22.35,46.44,2.47,14.17,12.58,28.58,27.92,34.05,3.27,1.16,14.81,5.08,27.05-.18,16.1-6.92,19.54-23.76,19.91-25.73,2.36-12.67-1.53-31.68-15.63-37.05-8.4-3.2-18.44-.81-24.92,4.65-5.18,4.37-10.14,12.46-8.05,19.65.33,1.14,1.41,4.87,5.01,7.05.8.49,3.48,1.95,6.72,1.48,4.39-.64,5.13-4.14,8.28-3.98,2.71.13,5.23,2.88,5.98,5.47,1.34,4.63-2.84,9.32-6.53,11.29-5.45,2.92-11.43.76-13.82-.11-9.92-3.59-14.12-12.9-14.43-13.62-5.47-12.66,1.95-28.14,11.65-36.2,12.46-10.35,29.36-9.02,34.03-8.65,5.07.4,5.01,1.09,19.54,3,13.61,1.79,17.75,1.69,22.24.41,2.73-.78,8.64-2.55,13.43-7.98,2.07-2.35,7.22-9.11,6.05-18.49Z"/><path class="j" d="m251.39,369.99c-.1.8-1.71,12.23-12.16,17.89-1.21.65-11.4,5.96-19.42,1.08-1-.61-5.42-3.49-6.33-8.95-.17-1.03-.78-5.14,2-8.94.18-.25,3.92-5.18,9.92-4.87.35.02,4.89.32,7.61,3.66,2.13,2.62,1.93,5.43,3.12,5.52,1.11.08,2.46-2.28,2.99-4.35,1.25-4.88-1.34-11.07-5.87-14.44-5.14-3.81-11.48-3.04-20.95-1.89-7.55.92-8.2,2.08-17.29,3.7-7.02,1.25-14.06,2.5-21.81,1.77-12.58-1.18-21.44-7.04-23.89-8.71-1.53-1.04-27.12-19.01-22.35-46.44,2.47-14.17,12.58-28.58,27.92-34.05,3.27-1.16,14.81-5.08,27.05.18,16.1,6.92,19.54,23.76,19.91,25.73,2.36,12.67-1.53,31.68-15.63,37.05-8.4,3.2-18.44.81-24.92-4.65-5.18-4.37-10.14-12.46-8.05-19.65.33-1.14,1.41-4.87,5.01-7.05.8-.49,3.48-1.95,6.72-1.48,4.39.64,5.13,4.14,8.28,3.98,2.71-.13,5.23-2.88,5.98-5.47,1.34-4.63-2.84-9.32-6.53-11.29-5.45-2.92-11.43-.76-13.82.11-9.92,3.59-14.12,12.9-14.43,13.62-5.47,12.66,1.95,28.14,11.65,36.2,12.46,10.35,29.36,9.02,34.03,8.65,5.07-.4,5.01-1.09,19.54-3,13.61-1.79,17.75-1.69,22.24-.41,2.73.78,8.64,2.55,13.43,7.98,2.07,2.35,7.22,9.11,6.05,18.49Z"/><path class="j" d="m97.27,261.87c3.67,8.92-3.01,18.15-3.63,18.98-11.36,15.22-38.35,9.12-40.19,8.67-1.84-.44-29.6-7.45-31.81-25.67-1.14-9.45,5.15-17.21,7.24-19.8,14.59-18.02,45.43-20.51,66.99-10.43,5.26,2.46,18.23,8.52,23.53,22.51.91,2.4,4.05,11.06,1.05,21.22-3.45,11.66-12.74,17.57-16.08,19.69-19.19,12.21-42.33,4.68-49.17,2.46-8.83-2.87-15.48-6.9-19.69-9.85,10.06,4.72,18.92,6.33,24.76,6.95,6.76.71,16.41,1.62,27.44-2.55,5.37-2.03,12.97-4.9,17.59-12.72,1-1.69,4.06-7.04,3.38-14.18-.78-8.12-5.9-13.22-8.04-15.36-7.5-7.47-16.77-8.7-21.55-9.26-2.6-.31-21.03-2.48-29.48,8.44-1.08,1.4-3.63,4.8-3.03,8.91.81,5.5,6.84,9.4,11.42,9.38.43,0,2.44-.01,2.8-.94.46-1.21-2.46-2.53-3.38-5.39-.91-2.82.59-5.65,1-6.43,3.26-6.17,14.77-7.49,23.22-5.42,3.65.89,12.44,3.05,15.63,10.79Z"/><path class="j" d="m738.11,139.6c.79-.32,12.01-5.09,14.8-17.09.32-1.39,2.83-13.03-4.46-19.69-.91-.83-5.11-4.45-10.95-3.85-1.1.11-5.48.64-8.56,4.47-.2.25-4.17,5.35-2.13,11.25.12.34,1.73,4.79,5.92,6.59,3.29,1.41,6.1.43,6.53,1.59.4,1.08-1.63,3.09-3.59,4.19-4.63,2.6-11.69,1.72-16.43-1.88-5.37-4.08-6.39-10.63-7.92-20.4-1.22-7.79-.22-8.76-1.17-18.29-.73-7.35-1.47-14.73-4.43-22.27-4.8-12.23-13.32-19.46-15.73-21.45-1.5-1.24-27.18-21.83-53.83-9.5-13.77,6.37-25.6,20.45-26.8,37.28-.25,3.59-.95,16.19,7.92,26.96,11.68,14.17,29.86,12.96,31.98,12.78,13.62-1.14,31.92-10.27,33.37-25.83.87-9.27-4.44-18.64-11.87-23.6-5.95-3.97-15.63-6.68-22.38-2.62-1.07.64-4.57,2.76-5.77,6.95-.27.94-1,4.01.41,7.12,1.9,4.21,5.69,3.98,6.44,7.17.64,2.74-1.44,6.02-3.87,7.48-4.35,2.62-10.33-.26-13.4-3.4-4.54-4.64-4.04-11.21-3.84-13.83.83-10.9,9.14-17.66,9.79-18.17,11.36-8.95,29.3-5.83,40.31,1.64,14.14,9.59,17.61,26.83,18.57,31.59,1.04,5.17.32,5.31,2.52,20.34,2.06,14.08,3.35,18.19,5.94,22.32,1.58,2.51,5.08,7.93,12,11.21,2.99,1.42,11.37,4.69,20.62.94Z"/><path class="j" d="m752.61,156.68c.1-.8,1.71-12.23,12.16-17.89,1.21-.65,11.4-5.96,19.42-1.08,1,.61,5.42,3.49,6.33,8.95.17,1.03.78,5.14-2,8.94-.18.25-3.92,5.18-9.92,4.87-.35-.02-4.89-.32-7.61-3.66-2.13-2.62-1.93-5.43-3.12-5.52-1.11-.08-2.46,2.28-2.99,4.35-1.25,4.88,1.34,11.07,5.87,14.44,5.14,3.81,11.48,3.04,20.95,1.89,7.55-.92,8.2-2.08,17.29-3.7,7.02-1.25,14.06-2.5,21.81-1.77,12.58,1.18,21.44,7.04,23.89,8.71,1.53,1.04,27.12,19.01,22.35,46.44-2.47,14.17-12.58,28.58-27.92,34.05-3.27,1.16-14.81,5.08-27.05-.18-16.1-6.92-19.54-23.76-19.91-25.73-2.36-12.67,1.53-31.68,15.63-37.05,8.4-3.2,18.44-.81,24.92,4.65,5.18,4.37,10.14,12.46,8.05,19.65-.33,1.14-1.41,4.87-5.01,7.05-.8.49-3.48,1.95-6.72,1.48-4.39-.64-5.13-4.14-8.28-3.98-2.71.13-5.23,2.88-5.98,5.47-1.34,4.63,2.84,9.32,6.53,11.29,5.45,2.92,11.43.76,13.82-.11,9.92-3.59,14.12-12.9,14.43-13.62,5.47-12.66-1.95-28.14-11.65-36.2-12.46-10.35-29.36-9.02-34.03-8.65-5.07.4-5.01,1.09-19.54,3-13.61,1.79-17.75,1.69-22.24.41-2.73-.78-8.64-2.55-13.43-7.98-2.07-2.35-7.22-9.11-6.05-18.49Z"/><path class="j" d="m748.61,369.99c.1.8,1.71,12.23,12.16,17.89,1.21.65,11.4,5.96,19.42,1.08,1-.61,5.42-3.49,6.33-8.95.17-1.03.78-5.14-2-8.94-.18-.25-3.92-5.18-9.92-4.87-.35.02-4.89.32-7.61,3.66-2.13,2.62-1.93,5.43-3.12,5.52-1.11.08-2.46-2.28-2.99-4.35-1.25-4.88,1.34-11.07,5.87-14.44,5.14-3.81,11.48-3.04,20.95-1.89,7.55.92,8.2,2.08,17.29,3.7,7.02,1.25,14.06,2.5,21.81,1.77,12.58-1.18,21.44-7.04,23.89-8.71,1.53-1.04,27.12-19.01,22.35-46.44-2.47-14.17-12.58-28.58-27.92-34.05-3.27-1.16-14.81-5.08-27.05.18-16.1,6.92-19.54,23.76-19.91,25.73-2.36,12.67,1.53,31.68,15.63,37.05,8.4,3.2,18.44.81,24.92-4.65,5.18-4.37,10.14-12.46,8.05-19.65-.33-1.14-1.41-4.87-5.01-7.05-.8-.49-3.48-1.95-6.72-1.48-4.39.64-5.13,4.14-8.28,3.98-2.71-.13-5.23-2.88-5.98-5.47-1.34-4.63,2.84-9.32,6.53-11.29,5.45-2.92,11.43-.76,13.82.11,9.92,3.59,14.12,12.9,14.43,13.62,5.47,12.66-1.95,28.14-11.65,36.2-12.46,10.35-29.36,9.02-34.03,8.65-5.07-.4-5.01-1.09-19.54-3-13.61-1.79-17.75-1.69-22.24-.41-2.73.78-8.64,2.55-13.43,7.98-2.07,2.35-7.22,9.11-6.05,18.49Z"/><path class="j" d="m902.73,261.87c-3.67,8.92,3.01,18.15,3.63,18.98,11.36,15.22,38.35,9.12,40.19,8.67,1.84-.44,29.6-7.45,31.81-25.67,1.14-9.45-5.15-17.21-7.24-19.8-14.59-18.02-45.43-20.51-66.99-10.43-5.26,2.46-18.23,8.52-23.53,22.51-.91,2.4-4.05,11.06-1.05,21.22,3.45,11.66,12.74,17.57,16.08,19.69,19.19,12.21,42.33,4.68,49.17,2.46,8.83-2.87,15.48-6.9,19.69-9.85-10.06,4.72-18.92,6.33-24.76,6.95-6.76.71-16.41,1.62-27.44-2.55-5.37-2.03-12.97-4.9-17.59-12.72-1-1.69-4.06-7.04-3.38-14.18.78-8.12,5.9-13.22,8.04-15.36,7.5-7.47,16.77-8.7,21.55-9.26,2.6-.31,21.03-2.48,29.48,8.44,1.08,1.4,3.63,4.8,3.03,8.91-.81,5.5-6.84,9.4-11.42,9.38-.43,0-2.44-.01-2.8-.94-.46-1.21,2.46-2.53,3.38-5.39.91-2.82-.59-5.65-1-6.43-3.26-6.17-14.77-7.49-23.22-5.42-3.65.89-12.44,3.05-15.63,10.79Z"/><path class="b" d="m346.65,424.98l-4.09,10.79-.89-.34c.4-3.07-.03-5.71-1.29-7.91-1.26-2.2-3.04-3.74-5.35-4.63-1.93-.74-3.92-.86-5.95-.36-2.04.5-3.77,1.51-5.2,3.03-1.83,1.94-3.29,4.33-4.36,7.16-1.06,2.78-1.67,5.46-1.83,8.01-.17,2.56.27,4.71,1.32,6.45s2.76,3.07,5.13,3.98c1.95.75,3.89,1,5.84.77,1.94-.23,4.21-1.06,6.8-2.47l-1.02,2.69c-2.42,1.16-4.73,1.78-6.92,1.88s-4.54-.33-7.05-1.3c-3.3-1.27-5.98-3.06-8.04-5.37-2.06-2.31-3.31-4.99-3.76-8.01-.45-3.03-.14-5.95.93-8.77,1.12-2.97,2.96-5.49,5.52-7.56s5.42-3.34,8.6-3.8,6.25-.13,9.2,1c2.17.83,4.29,2.19,6.35,4.07,1.19,1.09,1.98,1.7,2.36,1.85.49.19.98.17,1.47-.05.49-.22.94-.7,1.34-1.44l.89.34Z"/><path class="b" d="m356.42,446.77l-2.8,9.93c-.46,1.64-.66,2.69-.6,3.15.06.46.32.92.75,1.38.44.46,1.1.81,2,1.07l1.06.3-.25.87-16.65-4.75.25-.87,1.06.3c.92.26,1.71.31,2.37.14.47-.1.89-.39,1.26-.87.28-.33.64-1.3,1.1-2.9l5.94-21.08c.46-1.64.66-2.69.61-3.15-.06-.46-.3-.92-.74-1.37s-1.1-.81-2-1.07l-1.06-.3.25-.87,16.65,4.75-.25.87-1.06-.3c-.92-.26-1.71-.31-2.37-.14-.47.11-.9.39-1.28.86-.28.33-.65,1.3-1.1,2.9l-2.56,9.08,11.25,3.21,2.56-9.07c.46-1.64.66-2.69.61-3.15-.06-.46-.31-.92-.75-1.38-.45-.46-1.12-.82-2.01-1.07l-1.03-.29.25-.87,16.63,4.74-.25.87-1.03-.29c-.94-.27-1.73-.31-2.37-.14-.47.11-.9.39-1.28.86-.28.33-.64,1.3-1.1,2.9l-5.94,21.08c-.46,1.64-.66,2.69-.61,3.15.06.46.31.92.75,1.38.45.46,1.11.82,2.01,1.07l1.03.29-.25.87-16.63-4.75.25-.87,1.03.29c.94.27,1.73.32,2.37.14.47-.1.9-.39,1.28-.86.28-.33.65-1.3,1.1-2.9l2.8-9.93-11.25-3.21Z"/><path class="b" d="m400.27,464.21l-11.47-2.29-1.99,2.91c-.66.97-1.05,1.8-1.19,2.49-.18.91.05,1.66.7,2.24.38.34,1.4.75,3.07,1.21l-.18.89-10.8-2.15.18-.89c1.2.06,2.25-.24,3.16-.88s2.16-2.1,3.75-4.37l16.75-23.76.46.09,6.43,29.13c.62,2.76,1.22,4.54,1.81,5.35.44.61,1.15,1.05,2.13,1.33l-.18.89-15.71-3.13.18-.89.65.13c1.26.25,2.18.25,2.76,0,.4-.19.65-.52.75-1,.06-.29.07-.6.03-.92,0-.15-.12-.8-.36-1.95l-.92-4.42Zm-.46-1.95l-2.62-12.22-7.2,10.26,9.82,1.96Z"/><path class="b" d="m452.26,447.04l-1.41,11.46-.94-.12c-.34-3.08-1.39-5.54-3.13-7.37-1.74-1.83-3.84-2.9-6.3-3.21-2.05-.25-4.01.11-5.86,1.08-1.86.97-3.3,2.37-4.33,4.19-1.32,2.33-2.16,5-2.53,8-.36,2.96-.32,5.7.12,8.22.44,2.52,1.38,4.5,2.81,5.94,1.43,1.44,3.41,2.32,5.93,2.63,2.07.26,4.02.04,5.85-.66s3.84-2.04,6.02-4.03l-.35,2.85c-2.08,1.71-4.17,2.87-6.27,3.49s-4.48.77-7.15.44c-3.51-.44-6.53-1.53-9.08-3.28-2.55-1.75-4.4-4.05-5.55-6.88s-1.55-5.75-1.18-8.74c.39-3.15,1.57-6.04,3.56-8.67,1.99-2.62,4.47-4.54,7.45-5.76,2.98-1.21,6.03-1.63,9.17-1.24,2.31.29,4.69,1.09,7.13,2.42,1.41.77,2.32,1.18,2.73,1.23.52.06.99-.07,1.42-.41.43-.33.75-.91.96-1.72l.94.12Z"/><path class="b" d="m466.83,466.07l-.52,10.3c-.09,1.7-.05,2.77.12,3.2.17.43.51.83,1.04,1.17.53.35,1.26.54,2.18.59l1.1.06-.05.91-17.29-.88.05-.91,1.1.06c.96.05,1.74-.08,2.34-.4.43-.21.78-.58,1.03-1.13.2-.38.34-1.41.42-3.08l1.1-21.88c.09-1.7.05-2.77-.11-3.2s-.5-.83-1.03-1.17c-.53-.35-1.26-.54-2.18-.59l-1.1-.06.05-.91,17.29.88-.05.91-1.1-.06c-.96-.05-1.74.08-2.34.4-.43.21-.79.58-1.06,1.13-.2.38-.34,1.41-.42,3.08l-.48,9.42,11.68.6.48-9.42c.09-1.7.05-2.77-.11-3.2-.16-.43-.5-.83-1.04-1.17-.54-.35-1.27-.54-2.19-.59l-1.07-.06.05-.91,17.26.88-.05.91-1.07-.05c-.98-.05-1.76.08-2.34.4-.43.21-.79.58-1.06,1.13-.2.38-.34,1.41-.42,3.08l-1.1,21.88c-.09,1.7-.05,2.77.11,3.2.16.44.5.83,1.04,1.17.54.35,1.27.54,2.19.59l1.07.05-.05.91-17.26-.88.05-.91,1.07.06c.98.05,1.76-.08,2.34-.4.43-.21.79-.58,1.06-1.13.2-.38.34-1.41.42-3.08l.52-10.3-11.68-.6Z"/><path class="b" d="m513.22,473.45l-11.69.22-1.33,3.27c-.44,1.09-.65,1.99-.63,2.69.02.93.4,1.61,1.16,2.04.44.25,1.53.43,3.26.53l.02.91-11.01.21-.02-.91c1.18-.2,2.15-.72,2.9-1.54.75-.82,1.66-2.52,2.74-5.08l11.34-26.8h.46s12.45,27.07,12.45,27.07c1.19,2.57,2.15,4.18,2.9,4.83.56.5,1.35.78,2.36.84l.02.91-16.01.31-.02-.91h.66c1.29-.04,2.18-.23,2.7-.61.35-.27.52-.65.52-1.14,0-.29-.06-.6-.16-.91-.04-.15-.29-.76-.77-1.83l-1.84-4.12Zm-.86-1.8l-5.15-11.38-4.86,11.57,10.01-.19Z"/><path class="b" d="m542.29,466.33l.75,9.21c.15,1.8.35,2.92.61,3.36s.68.79,1.26,1.02c.58.23,1.62.28,3.11.16l.07.91-16.76,1.39-.07-.91c1.52-.13,2.55-.35,3.07-.69.52-.33.87-.73,1.05-1.21.18-.47.2-1.61.05-3.41l-1.76-21.55c-.15-1.8-.35-2.92-.61-3.36s-.67-.79-1.25-1.02c-.57-.23-1.62-.29-3.12-.16l-.07-.91,14.38-1.19c4.74-.39,8.2.18,10.4,1.7,2.2,1.53,3.4,3.56,3.61,6.11.18,2.15-.34,4.05-1.54,5.7-1.21,1.64-2.95,2.84-5.24,3.59-1.54.52-4.19.94-7.93,1.25Zm-1.33-16.26l1.17,14.35c.54-.01.94-.03,1.22-.05,1.98-.16,3.46-.88,4.43-2.15.97-1.27,1.36-3.15,1.16-5.63-.2-2.46-.88-4.22-2.05-5.28-1.16-1.05-2.81-1.49-4.93-1.32l-1,.08Z"/><path class="b" d="m576.04,443.64c5.18-.99,9.65-.1,13.4,2.66,3.75,2.76,5.99,6.58,6.72,11.48.63,4.18-.04,8.04-1.99,11.58-2.59,4.7-6.82,7.5-12.69,8.39-5.89.9-10.75-.42-14.57-3.95-3.02-2.79-4.86-6.36-5.51-10.71-.73-4.89.31-9.22,3.12-12.98,2.82-3.77,6.65-5.92,11.51-6.46Zm.52,1.51c-2.99.45-5.04,2.34-6.14,5.65-.89,2.72-.98,6.44-.27,11.17.84,5.62,2.45,9.62,4.82,12.01,1.65,1.67,3.71,2.32,6.17,1.94,1.66-.25,2.98-.87,3.97-1.85,1.26-1.25,2.11-3.07,2.56-5.47.45-2.39.4-5.42-.15-9.08-.65-4.36-1.55-7.55-2.68-9.59-1.13-2.04-2.38-3.41-3.77-4.11-1.38-.7-2.88-.93-4.51-.68Z"/><path class="b" d="m629.19,433.23l.2.89c-1.03.39-1.77.89-2.24,1.5-.64.85-1.47,2.97-2.5,6.36l-4.29,13.38,1.8,7.85c.39,1.68.71,2.7.98,3.06.27.37.7.65,1.28.84.59.19,1.31.19,2.16-.01l1.81-.42.2.89-18.1,4.21-.2-.89,1.69-.39c.95-.22,1.67-.56,2.14-1.03.36-.32.6-.78.71-1.38.09-.42-.06-1.45-.43-3.08l-1.5-6.51-10.79-12.14c-2.14-2.39-3.57-3.76-4.3-4.1-.73-.34-1.61-.4-2.65-.18l-.2-.89,15.46-3.6.2.89-.69.16c-.94.22-1.56.51-1.87.86-.31.36-.43.69-.36.99.13.57,1.1,1.87,2.9,3.89l8.3,9.39,3.55-11.14c.89-2.73,1.25-4.48,1.07-5.27-.1-.43-.39-.74-.87-.93-.63-.27-1.68-.28-3.14-.03l-.2-.89,9.85-2.29Z"/><path class="b" d="m651.35,451.19l-11.18,3.44-.39,3.51c-.12,1.17-.08,2.09.12,2.76.27.89.83,1.44,1.67,1.64.5.12,1.59,0,3.28-.39l.26.87-10.53,3.24-.26-.87c1.08-.52,1.87-1.28,2.37-2.28.5-1,.91-2.88,1.25-5.64l3.6-28.9.44-.14,19.36,22.61c1.84,2.14,3.21,3.42,4.11,3.85.68.32,1.51.38,2.5.16l.26.87-15.32,4.71-.26-.87.63-.19c1.23-.38,2.04-.82,2.43-1.31.27-.36.33-.77.18-1.24-.08-.28-.22-.56-.4-.83-.07-.13-.49-.65-1.24-1.55l-2.89-3.45Zm-1.32-1.49l-8.05-9.52-1.52,12.46,9.57-2.94Z"/><path class="b" d="m679.77,414.74l4.27,10.24-.93.37c-1.45-2.42-3.34-4.08-5.67-4.98s-4.5-.96-6.5-.17c-1.55.61-2.61,1.51-3.19,2.69-.58,1.19-.66,2.32-.24,3.4.27.69.66,1.23,1.19,1.64.72.54,1.7.98,2.94,1.3.91.22,2.9.47,5.97.73,4.3.36,7.39,1.09,9.26,2.18,1.86,1.1,3.19,2.67,3.98,4.71,1.01,2.59.87,5.22-.41,7.88-1.28,2.66-3.47,4.6-6.56,5.81-.97.38-1.93.64-2.87.79-.94.14-2.17.19-3.69.16-.85-.02-1.5.06-1.97.25-.39.16-.75.47-1.07.95-.32.48-.5,1.08-.53,1.82l-.84.33-4.55-11.71.84-.33c1.95,3.03,4.21,5.04,6.79,6.02,2.58.98,4.96,1.04,7.16.17,1.7-.67,2.87-1.67,3.52-2.99.65-1.33.73-2.61.25-3.84-.28-.73-.75-1.37-1.41-1.9-.65-.53-1.5-.96-2.52-1.26-1.03-.31-2.74-.56-5.12-.77-3.34-.28-5.82-.67-7.43-1.17-1.61-.49-2.97-1.21-4.1-2.16s-1.97-2.14-2.54-3.59c-.96-2.47-.88-4.93.25-7.38s3.06-4.21,5.81-5.29c1-.39,2.02-.65,3.05-.78.78-.1,1.78-.1,3,0,1.22.09,2.03.06,2.44-.1.39-.16.66-.4.79-.73.13-.33.12-1-.05-2.01l.68-.27Z"/><path class="b" d="m435.27,58.31l.36,9.4-23.27,3.43-.1-.72.87-.13c.76-.11,1.35-.34,1.78-.68.31-.23.52-.58.64-1.05.1-.33.05-1.16-.14-2.48l-2.52-17.35c-.2-1.35-.39-2.18-.58-2.5-.19-.32-.52-.57-.99-.76s-1.07-.23-1.8-.12l-.87.13-.1-.72,13.97-2.06.1.72-1.14.17c-.76.11-1.35.34-1.78.68-.31.23-.53.58-.66,1.05-.1.33-.05,1.16.14,2.48l2.44,16.8c.2,1.35.4,2.2.61,2.54.21.35.55.58,1.03.69.34.07,1.13.01,2.36-.17l2.18-.32c1.39-.2,2.52-.62,3.37-1.25s1.54-1.53,2.07-2.69c.52-1.16.93-2.83,1.24-4.99l.79-.12Z"/><path class="b" d="m452.27,65.25l.07.72-13.77,1.44-.07-.72.87-.09c.76-.08,1.37-.28,1.8-.6.32-.22.54-.56.68-1.02.11-.33.1-1.16-.04-2.49l-1.81-17.44c-.14-1.36-.3-2.19-.48-2.52-.18-.32-.5-.59-.96-.8-.46-.21-1.06-.27-1.8-.2l-.87.09-.08-.72,13.77-1.44.07.72-.87.09c-.76.08-1.37.28-1.8.6-.32.22-.55.56-.7,1.02-.11.33-.1,1.16.04,2.49l1.81,17.44c.14,1.36.3,2.19.49,2.52s.51.59.97.8c.46.21,1.06.27,1.8.2l.87-.09Z"/><path class="b" d="m477.97,36.91l.56,9.22-.76.05c-.72-2.37-1.9-4.15-3.54-5.33s-3.44-1.72-5.42-1.59c-1.65.1-3.14.67-4.45,1.71-1.32,1.04-2.25,2.35-2.79,3.93-.7,2.03-.97,4.25-.83,6.67.15,2.38.58,4.53,1.29,6.45.72,1.92,1.74,3.34,3.08,4.26,1.33.92,3.02,1.32,5.04,1.19,1.66-.1,3.17-.56,4.5-1.38s2.72-2.17,4.15-4.06l.14,2.3c-1.39,1.65-2.86,2.87-4.42,3.67-1.56.8-3.42,1.26-5.56,1.4-2.82.17-5.36-.24-7.62-1.24-2.26-1-4.05-2.53-5.37-4.59s-2.05-4.29-2.2-6.7c-.15-2.54.36-4.98,1.54-7.34,1.18-2.36,2.85-4.23,5.02-5.63,2.17-1.39,4.51-2.17,7.03-2.32,1.86-.11,3.85.17,5.96.85,1.22.4,2,.59,2.32.57.42-.03.77-.2,1.05-.53s.46-.83.51-1.5l.76-.05Z"/><path class="b" d="m496.67,36.86c4.22-.2,7.66,1.01,10.32,3.61s4.01,5.89,4.05,9.85c.03,3.38-.92,6.36-2.86,8.95-2.57,3.43-6.23,5.17-10.99,5.22-4.76.05-8.47-1.54-11.1-4.76-2.08-2.55-3.14-5.58-3.17-9.11-.04-3.96,1.27-7.27,3.92-9.93,2.65-2.67,5.93-3.94,9.84-3.82Zm.25,1.26c-2.42.02-4.25,1.29-5.49,3.79-1.01,2.05-1.5,4.99-1.46,8.82.04,4.55.87,7.9,2.48,10.06,1.12,1.51,2.68,2.25,4.67,2.23,1.34-.01,2.46-.35,3.35-1.02,1.14-.85,2.02-2.2,2.64-4.05.62-1.85.92-4.25.89-7.21-.04-3.52-.39-6.16-1.05-7.9-.67-1.74-1.51-2.97-2.53-3.68-1.02-.71-2.18-1.06-3.5-1.05Z"/><path class="b" d="m523.41,52.21l-.37,7.46c-.07,1.44-.03,2.35.13,2.73.16.38.45.7.88.94.43.24,1.25.4,2.46.46l-.04.73-13.54-.68.04-.73c1.22.06,2.06-.01,2.5-.22.45-.21.77-.49.96-.85.19-.36.33-1.26.4-2.7l.86-17.27c.07-1.44.03-2.35-.13-2.73-.16-.38-.45-.7-.88-.94-.43-.24-1.25-.4-2.46-.46l.04-.73,12.29.62c3.2.16,5.53.5,6.99,1.02,1.46.52,2.63,1.4,3.51,2.65.88,1.24,1.28,2.67,1.2,4.28-.1,1.96-.88,3.55-2.35,4.76-.94.77-2.22,1.31-3.86,1.64l5.91,9.33c.77,1.21,1.33,1.96,1.67,2.27.51.43,1.12.69,1.82.76l-.04.73-8.33-.42-7.92-12.56-1.74-.09Zm.65-13.05l-.58,11.66,1.11.06c1.81.09,3.17,0,4.08-.3.91-.29,1.65-.85,2.21-1.7.56-.84.87-1.97.94-3.37.1-2.03-.3-3.55-1.19-4.57-.89-1.02-2.39-1.58-4.48-1.68l-2.09-.11Z"/><path class="b" d="m554.12,41.41l-1.11,10.79.52.05c1.67.17,2.94-.23,3.8-1.21.86-.98,1.5-2.49,1.92-4.52l.74.08-1.42,13.88-.74-.08c0-1.53-.2-2.8-.6-3.82s-.91-1.73-1.54-2.13c-.63-.4-1.57-.67-2.82-.8l-.77,7.47c-.15,1.46-.18,2.36-.09,2.7s.29.63.61.87c.32.24.85.4,1.6.48l1.57.16c2.46.26,4.49-.11,6.09-1.11s2.85-2.63,3.73-4.91l.72.07-2.05,8.3-22.77-2.37.07-.72.87.09c.76.08,1.39,0,1.89-.22.36-.15.65-.43.87-.86.17-.3.33-1.11.47-2.44l1.79-17.44c.12-1.2.17-1.94.13-2.22-.08-.47-.29-.85-.61-1.13-.46-.42-1.11-.67-1.96-.76l-.87-.09.07-.72,22.05,2.29-.8,7.84-.74-.08c-.18-1.95-.57-3.38-1.16-4.29-.59-.9-1.49-1.62-2.7-2.14-.7-.31-2.05-.57-4.04-.78l-2.72-.28Z"/><path class="b" d="m589.58,43.92l-1.11,8.81-.79-.12c-.04-2.26-.69-4.17-1.95-5.73-1.26-1.56-2.74-2.48-4.44-2.74-1.31-.2-2.41,0-3.28.58-.87.59-1.38,1.34-1.52,2.26-.09.58-.03,1.12.17,1.62.28.67.79,1.36,1.52,2.08.54.52,1.82,1.49,3.85,2.91,2.83,1.98,4.68,3.73,5.55,5.24.85,1.51,1.15,3.13.88,4.87-.33,2.2-1.47,3.97-3.42,5.29-1.95,1.33-4.23,1.79-6.86,1.39-.82-.13-1.59-.33-2.3-.61-.71-.28-1.58-.74-2.62-1.37-.58-.35-1.07-.56-1.47-.62-.33-.05-.71.02-1.12.23-.41.2-.77.55-1.09,1.05l-.71-.11,1.5-9.95.71.11c.14,2.88.91,5.19,2.3,6.9,1.39,1.72,3.02,2.72,4.89,3,1.44.22,2.65,0,3.63-.66.97-.66,1.54-1.51,1.7-2.56.09-.62.02-1.25-.22-1.88-.24-.63-.66-1.26-1.25-1.89-.59-.63-1.67-1.49-3.24-2.59-2.2-1.54-3.76-2.81-4.68-3.8-.92-.99-1.58-2.04-1.98-3.15s-.51-2.28-.33-3.51c.32-2.1,1.35-3.77,3.11-5.01,1.75-1.24,3.8-1.69,6.13-1.33.85.13,1.66.36,2.42.69.58.25,1.28.65,2.08,1.2.81.55,1.38.86,1.73.91.33.05.61-.01.84-.19.22-.18.48-.65.77-1.41l.58.09Z"/><path class="h" d="m406.95,195.74c-7.55-2.4-15.11-4.8-22.66-7.2h-104.06v39.63h19.13v93.34h-14.23v35.24h97.22v-14.87c1.6,2.26,32.09,43.84,82.21,40.05,36.88-2.78,58.87-28.21,63.05-33.24h132.03c2.19,1.55,8.8,5.82,18.23,5.71,10.26-.13,17.17-5.36,19.16-6.99,3.49,1.8,9.59,4.34,17.3,4.28,11.31-.08,19.39-5.7,26.59-10.7,4.74-3.29,11.78-9,18.38-18.15-1.6-4.56-3.2-9.11-4.79-13.67h-9.15v-38.52c-1.14-5.23-4.96-19.08-17.44-27.11-12.09-7.77-25.41-5.66-37.74-3.71-14.38,2.28-25.28,7.65-31.88,11.56-2.08-2.02-5.3-4.9-9.65-7.78-6.21-4.1-11.22-7.41-17.87-7.49-2.31-.03-8.05.3-14.61,5.16,0-4.51,0-9.03,0-13.54-16.93,5.69-33.86,11.39-50.79,17.08,1.12-3.53,2.41-8.68,2.79-14.98.4-6.68.74-12.48-2.14-18.69-2.61-5.62-6.64-8.96-12.87-14.12-3.71-3.08-7.04-5.28-9.36-6.71-2.85,5.34-8.45,8.11-13.44,6.99-4.64-1.04-6.99-5.05-7.43-5.85-.22-2.85-.23-7.04,1-11.84,2.92-11.4,10.8-18.31,16.99-23.73,3.73-3.26,9.38-7.58,17.18-11.37-2.71-2.83-7.26-6.82-13.87-9.7-11.46-4.99-21.95-3.52-26.2-2.67-2.34-6.46-5.58-9.25-8.07-10.61-3.01-1.64-5.29-1.37-11.44-3.09-4.09-1.14-7.31-2.43-9.33-3.32-2.31.92-6.02,2.29-10.72,3.53-6.85,1.8-9.71,1.72-13.08,3.96-2.13,1.41-4.93,4.06-6.93,9.49-4.54-.91-13.45-2.08-24.05.78-10.77,2.91-17.95,8.53-21.41,11.63h-13.58v38.38h7.58v12.84Z"/><path d="m416.36,243.49v-3.24c1.13-.2,4.96-2.17,6.35-3.22,1.09-.82,2.81-3.16,2.83-5.6-.06-20.01-.12-38.8-.17-58.82-.03-.46-.1-1.13-.26-1.93-.21-1.06-.29-1.6-.55-1.93-.79-1.02-2.25-1.12-3.86-1.23-.73-.05-1.81-.07-3.13.14,0-1.14,0-2.27,0-3.41,1.35-.11,3.35-.33,5.74-.83,1.1-.23,2.21-.51,7.52-2.15,5.11-1.58,5.64-1.81,7.33-2.2,2.8-.65,5.14-.91,6.69-1.03,0,24.68.02,49.37.03,74.05.2,1.98.32,3.1,2.63,5.08,2.18,1.87,5.12,2.44,6,2.54-.02,1.3-.05,2.6-.07,3.9-4.53-1.21-10.59-2.37-17.8-2.46-7.89-.1-14.49,1.1-19.28,2.35Z"/><path d="m513.28,243.78c-4.21,2.06-9.94,2.87-14.74-.38-3.94-2.66-5.19-6.73-5.52-7.99-.57.62-1.33,1.39-2.28,2.22,0,0-1.75,1.53-3.74,2.79-7.02,4.45-13.19,4.58-13.19,4.58-2.55.05-7.46.14-11.27-3.37-1.3-1.2-2.4-2.78-3.17-4.86-2.82-7.62,3.6-13.85,4.93-14.95,5.65-4.66,10.99-7.74,18.9-10.41,3.83-1.29,7.08-2.06,9.27-2.5-.03-4.65-.06-9.31-.08-13.96,0-.48-.04-1.45-.64-2.43-.13-.21-.57-.88-1.52-1.48-1.09-.69-3.01-1-5.68-1-3.2,0-4.97.04-6.84.77-.77.3-1.51.68-1.66,1.34-.18.75.5,1.42,1,2.07,1.91,2.52,1.76,5.71,1.73,6.19-.03.64-.25,3.45-2.51,5.45-1.12,1-2.66,1.7-4.69,1.88-4.84.42-7.77-1.23-8.68-4.4-1.24-4.32-.54-7.51,2.63-10.94,4.21-4.57,13.7-6.99,23.78-6.37,7.53.46,12.83.78,16.98,5.12,5.46,5.72,4.65,13.95,4.43,15.72-.07,11.1-.05,19.56-.14,24.11-.02,1.11-.08,3.8,1.58,5.01,1.19.87,2.81.64,3.29.57,1.97-.27,3.19-1.51,3.57-1.93.55,1.19,1.1,2.38,1.64,3.58-.99,1.32-3.76,3.8-7.38,5.58Zm-20.78-30.97c-4.04.95-6.86,2.63-8.54,3.83-1.77,1.26-7.98,5.68-8.42,12.5-.08,1.32-.27,4.27,1.69,6.25,2.74,2.76,7.47,1.42,8.26,1.18,4.76-1.45,6.7-5.97,7.01-6.73v-17.02Z"/><path d="m505.36,343.18c-12.59,6.6-28.34,10.55-42.78,7.29-25.32-5.71-33.4-22.55-39.77-36.36-7.19-15.59-14.87-36.62-27.78-41.77.53-.26,1.05-.52,1.59-.82,2.14-1.22,5.95-3.43,9.08-7.87,1.93-2.75,2.73-5.1,3.72-8.01.73-2.16,2.54-8.03,2.43-15.95-.03-2.53-.1-5.66-1.11-9.65-.54-2.13-1.84-7.06-5.57-12.07-4.44-5.95-9.84-8.67-13.4-10.41-6.67-3.26-12.89-4.14-17.1-4.34-7.92.07-15.85.13-23.77.2h-46.97v3.39c2.57.49,8.04-.08,12.29,2.24,2.65,1.45,3.86,4.22,3.98,7.37v111.24c-.39,2.27-2.28,4.12-5.05,6.16-3.46,2.55-9.7,3.41-11.67,3.46v3.73h64.2v-3.39c-10.48-2.12-14.92-4.81-16.78-9.97v-50.82c3.61-.22,11-.07,15.45,3.35,5.85,4.49,8.48,11.68,13.21,21.01,0,0,7.04,16.45,20.29,33.96,9.82,12.97,16.87,26.03,48.53,29.32,34.31,3.29,59.54-14.8,62.82-21.03l-5.83-.29Zm-154.48-111.38v-22.49c1.37-.04,3.3,0,5.56.29,2.64.34,7.36,1,12.36,4,1.75,1.05,5.38,3.29,8.29,7.65,2.73,4.1,3.39,7.94,4.07,11.94.19,1.1.88,5.41.43,11.16-.3,3.83-.59,7.52-2.57,11.87-.95,2.09-2.67,5.76-6.5,8.87-3.57,2.89-7.29,3.95-9.51,4.58-.54.15-2.33.64-4.77.96-3.09.12-5.63.16-7.37.18v-39.01Z"/><path d="m511.19,317.37c-6.86,16.02-13.85,23.55-35.74,24.03-26.37.57-38.17-20.6-39.02-40.91-.57-13.6,2.5-23.77,10.43-31.9,8.5-8.89,18.08-10.73,29.3-10.73,11.91,0,20.68,2.59,26.8,9.94,8.69,10.44,7.5,23.28,7.43,25.75-15.35.01-30.71.02-46.06.04.03,4.47.06,8.95.08,13.42.56,12.04,7.24,22.71,20.39,22.76,10.73.04,20.91-6.07,22.38-12.33l4-.07Zm-35.74-53.94c-11.01.02-11.01,15.72-11.01,22.83h22.01c0-8.76,0-22.85-11.01-22.83Z"/><path d="m513.64,333.7v-5.28c3.13-.66,5.28-1.85,6.52-2.68,1.5-1,2.13-1.77,2.49-2.31.97-1.43,1.21-2.89,1.28-3.72v-40.6c.27-2.55.14-4.66-.05-6.14-.35-2.81-.88-3.46-1.26-3.79-.52-.43-1.19-.69-4.18-.75-1.25-.03-2.94-.02-4.96.11v-4.37c1.82-.11,4.41-.33,7.47-.87.98-.17,5.31-.95,11.42-2.99,5.46-1.83,6.13-2.58,9.89-3.44,3.32-.76,6.14-.93,8-.96,0,35.2.09,60.76.11,63.8,0,.8.04,2.73,1.24,4.5.8,1.18,1.8,1.8,2.58,2.31,2.35,1.53,4.69,1.83,5.94,1.9v5.28c-6.23-1.15-13.74-2.05-22.26-2.12-9.37-.07-17.57.89-24.24,2.12Zm26.07-99.46c-7.85,0-14.27-5.16-14.27-12.03s6.42-12.03,14.5-12.03c8.8,0,14.98,4.97,14.98,12.03s-6.18,12.03-15.22,12.03Z"/><path d="m613.35,333.75c.02-1.45.05-2.91.07-4.36,1.78-.58,3.18-1.27,4.16-1.84,2.31-1.32,3.08-2.33,3.27-2.6.55-.76.86-1.49,1.04-2,0-.92,0-1.83,0-2.75.03-14.13-.06-28.19-.25-42.19.05-1.21-.04-3.28-1.16-5.42-.42-.81-1.04-1.95-2.33-2.9-2.01-1.47-4.23-1.39-5.14-1.35-.53.02-2.4.13-4.42,1.27-2.72,1.54-3.94,3.91-4.48,4.99-.83,1.68-1.06,3.08-1.39,5.1-.37,2.23-.42,4.13-.39,5.47-.06,11.89-.12,23.78-.18,35.67-.09,1.1-.08,3.16,1.21,4.85.65.86,1.45,1.38,2.36,1.98,1.31.86,2.51,1.37,3.35,1.66,0,1.46,0,2.91,0,4.37-5.47-1.29-12.56-2.44-20.85-2.49-8.85-.06-16.36,1.15-22.07,2.49v-4.89c9.58-3.43,9.86-5.11,9.73-14.19v-36.57c0-8.83-3.3-8.7-9.92-8.68v-4.75c14.96-.9,21.26-2.84,24.13-4.6.65-.4,3.22-2.13,7.05-3.12,2.17-.56,4.01-.69,5.2-.72,0,4.41,0,8.81-.01,13.22,1.46-2.1,4.01-5.23,8.02-7.96,6.78-4.61,13.44-5.16,16.4-5.36,4.87-.34,9.23-.55,13.29,2.09,7.49,4.87,7.52,15.41,7.5,16.73,0,15.13,0,30.27,0,45.4,0,.93,0,1.87,0,2.8.16.58.46,1.42,1.07,2.27.29.4.99,1.29,3.08,2.47,1.1.62,2.73,1.4,4.88,1.96,0,1.31,0,2.62,0,3.92-5.65-1.25-12.88-2.34-21.3-2.36-8.71-.02-16.17,1.11-21.94,2.4Z"/><path d="m733.32,333.96c-3,1.25-12.47,5.19-19.83.11-4.38-3.02-5.95-7.81-6.54-10.32-1.83,1.88-4.65,4.46-8.52,6.87-3.48,2.16-9.41,5.85-17.54,6.1-3.73.11-10.49.32-14.95-4.43-2.64-2.82-3.29-6.12-3.59-7.78-1.87-10.25,5.78-18.8,7.34-20.17,7.44-6.5,13.76-9.95,24.18-13.68,5.04-1.8,11.16-3.67,14.04-4.29-.07-4.99-.14-9.99-.21-14.98.2-2.72-.36-4.78-.79-5.94-.47-1.29-.92-2.55-2.13-3.62-1.39-1.25-2.96-1.52-4.88-1.85-2.05-.35-3.71-.22-5.07-.11-1.36.11-2.35.3-3.39.5-2.5.49-4.04.79-5.79,1.72-1.43.76-3.11,1.65-3.25,3.04-.08.82.46,1.05,2.04,3.25,2.75,3.83,3.03,5.81,3,7.11,0,.09,0,.16,0,.23-.04.9-.33,4.81-3.3,7.61-1.48,1.39-3.51,2.38-6.18,2.62-6.38.58-11.46-1.72-12.65-6.14-1.03-3.79-.74-7.09-.43-8.19.37-1.29,1.82-5.53,9.59-10.3,10.94-6.71,22.04-6.88,26.8-6.89,0,0,8.97-.31,16.88,3.14,3.91,1.7,5.69,3.31,6.16,3.75,4.95,4.61,5.73,10.97,5.9,13.52-.02,25.82,0,44.6-.07,48.5-.01.59-.05,2.35,1.04,3.15.96.71,2.36.34,4.66-.29,1.21-.33,2.87-.88,4.77-1.78.95.79,1.91,1.57,2.86,2.36-1.79,1.96-5.12,5.09-10.15,7.19Zm-25.38-39.95c-2.07-.08-9.12-.08-15.12,4.9-3.54,2.93-5.23,6.36-5.88,7.7-.77,1.6-1.74,4.25-2.03,7.8-.36,4.26,1.62,7.02,4.86,8.19,3.18,1.14,7.83.55,10.9-.93,6.08-2.93,7.11-9.4,7.28-11.01v-16.64Z"/><path class="e" d="m466.91,169.12c2.42-1.79,10.3-7.16,21.66-6.97,10.64.18,17.99,5.13,20.48,6.97,2.27-2.96,5.32-6.43,9.33-9.87,3.35-2.88,6.6-5.09,9.43-6.76-2.39-.8-6.24-1.77-11.04-1.61-4.93.17-8.8,1.47-11.15,2.47-.42-2.36-1.39-6-3.86-9.76-4.21-6.41-10.12-9.13-12.54-10.08-2.02.61-7,2.4-11.15,7.29-4.49,5.3-5.28,11.02-5.47,13.09-2.4-1.27-6.47-3.03-11.79-3.54-6.38-.62-11.44.85-14.13,1.85,3.57,1.73,8.2,4.44,12.85,8.66,3.16,2.87,5.58,5.76,7.4,8.26Z"/><path class="e" d="m472.59,153.89c1.23,3.43,2.45,6.85,3.68,10.28"/><line class="e" x1="505.61" y1="153.35" x2="501.39" y2="164.81"/><path class="i" d="m488.99,135.38c-2.39,5.49-4.79,10.98-7.18,16.48l2.36,9.06c3.11-.08,6.22-.15,9.33-.23.68-2.81,1.35-5.62,2.03-8.43-2.18-5.63-4.36-11.25-6.54-16.88Z"/><path class="f" d="m466.91,169.12c2.42-1.79,10.3-7.16,21.66-6.97,10.64.18,17.99,5.13,20.48,6.97,2.27-2.96,5.32-6.43,9.33-9.87,3.35-2.88,6.6-5.09,9.43-6.76-2.39-.8-6.24-1.77-11.04-1.61-4.93.17-8.8,1.47-11.15,2.47-.42-2.36-1.39-6-3.86-9.76-4.21-6.41-10.12-9.13-12.54-10.08-2.02.61-7,2.4-11.15,7.29-4.49,5.3-5.28,11.02-5.47,13.09-2.4-1.27-6.47-3.03-11.79-3.54-6.38-.62-11.44.85-14.13,1.85,3.57,1.73,8.2,4.44,12.85,8.66,3.16,2.87,5.58,5.76,7.4,8.26Z"/></svg>